<?xml version="1.0" encoding="UTF-8" standalone="no"?>
<svg
   xmlns:dc="http://purl.org/dc/elements/1.1/"
   xmlns:cc="http://creativecommons.org/ns#"
   xmlns:rdf="http://www.w3.org/1999/02/22-rdf-syntax-ns#"
   xmlns:svg="http://www.w3.org/2000/svg"
   xmlns="http://www.w3.org/2000/svg"
   width="162.65822"
   height="126.96287"
   viewBox="0 0 43.036652 33.592258"
   version="1.1"
   id="svg1113">
  <defs
     id="defs1107" />
  <metadata
     id="metadata1110">
    <rdf:RDF>
      <cc:Work
         rdf:about="">
        <dc:format>image/svg+xml</dc:format>
        <dc:type
           rdf:resource="http://purl.org/dc/dcmitype/StillImage" />
        <dc:title></dc:title>
      </cc:Work>
    </rdf:RDF>
  </metadata>
  <g
     id="layer1"
     transform="translate(-26.862627,-126.83482)">
    <rect
       style="fill:#ffff00;stroke-width:3.175;stroke-linecap:round;stroke-linejoin:round"
       id="rect1124"
       width="18.260967"
       height="6.7506509"
       x="41.568813"
       y="149.55505"
       ry="3.3753254" />
    <path
       id="rect1060"
       style="fill:#000000;stroke:none;stroke-width:0.273928"
       d="m 32.480372,126.83482 c -3.112268,0 -5.617745,2.50599 -5.617745,5.61826 v 22.35626 c 0,3.11227 2.505477,5.61774 5.617745,5.61774 H 64.28153 c 3.112268,0 5.617747,-2.50547 5.617747,-5.61774 v -22.35626 c 0,-3.11227 -2.505474,-5.61826 -5.617747,-5.61826 z m 4.183725,7.60005 c 0.524558,-0.0114 1.086208,0.18922 1.379244,0.55139 l 5.287015,6.535 c 0.04821,0.0497 0.0927,0.105 0.133324,0.16433 l 0.02791,0.0346 c 0.197246,0.24378 0.277709,0.59381 0.267684,0.95084 0.01005,0.35711 -0.0704,0.70753 -0.267684,0.95137 l -0.02791,0.0346 c -0.04063,0.0593 -0.08511,0.11458 -0.133324,0.16433 l -5.287015,6.535 c -0.468855,0.57947 -1.625994,0.74475 -2.21692,0.29042 -0.610404,-0.4693 -0.782478,-1.69173 -0.298172,-2.2903 l 4.599718,-5.68544 -4.599718,-5.68492 c -0.484306,-0.59857 -0.312232,-1.82152 0.298172,-2.29082 0.221597,-0.17037 0.522939,-0.25357 0.837676,-0.26045 z m 7.824843,16.9478 h 11.306289 c 0.732853,0 1.542545,0.82167 1.554427,1.55443 0.0123,0.75773 -0.7966,1.65882 -1.554427,1.65881 H 44.48894 c -0.769956,0 -1.620144,-0.88895 -1.607653,-1.65881 0.01209,-0.74529 0.862261,-1.55443 1.607653,-1.55443 z" />
  </g>
</svg>
