<?xml version="1.0" encoding="UTF-8" standalone="no"?>
<svg
   xmlns:dc="http://purl.org/dc/elements/1.1/"
   xmlns:cc="http://creativecommons.org/ns#"
   xmlns:rdf="http://www.w3.org/1999/02/22-rdf-syntax-ns#"
   xmlns:svg="http://www.w3.org/2000/svg"
   xmlns="http://www.w3.org/2000/svg"
   width="162.65822"
   height="126.96287"
   viewBox="0 0 43.036652 33.592258"
   version="1.1"
   id="svg1113">
  <defs
     id="defs1107" />
  <metadata
     id="metadata1110">
    <rdf:RDF>
      <cc:Work
         rdf:about="">
        <dc:format>image/svg+xml</dc:format>
        <dc:type
           rdf:resource="http://purl.org/dc/dcmitype/StillImage" />
        <dc:title></dc:title>
      </cc:Work>
    </rdf:RDF>
  </metadata>
  <path
     id="rect1124"
     style="fill:#ffff00;stroke-width:12;stroke-linecap:round;stroke-linejoin:round"
     d="M 66.619141 92.779297 C 63.801911 92.779297 60.588663 95.837453 60.542969 98.654297 C 60.495759 101.564 63.709071 104.92383 66.619141 104.92383 L 109.35156 104.92383 C 112.21579 104.92387 115.27305 101.51816 115.22656 98.654297 C 115.18165 95.88481 112.1214 92.779297 109.35156 92.779297 L 66.619141 92.779297 z "
     transform="scale(0.26458333)" />
  <path
     id="rect1060"
     style="fill:#000000;stroke:none;stroke-width:0.273928"
     d="M 5.617745,0 C 2.505477,0 0,2.50599 0,5.61826 v 22.35626 c 0,3.11227 2.505477,5.61774 5.617745,5.61774 h 31.801158 c 3.112268,0 5.617747,-2.50547 5.617747,-5.61774 V 5.61826 C 43.03665,2.50599 40.531176,0 37.418903,0 Z M 9.80147,7.60005 c 0.524558,-0.0114 1.086208,0.18922 1.379244,0.55139 l 5.287015,6.535 c 0.04821,0.0497 0.0927,0.105 0.133324,0.16433 l 0.02791,0.0346 c 0.197246,0.24378 0.277709,0.59381 0.267684,0.95084 0.01005,0.35711 -0.0704,0.70753 -0.267684,0.95137 l -0.02791,0.0346 c -0.04063,0.0593 -0.08511,0.11458 -0.133324,0.16433 l -5.287015,6.535 C 10.711859,24.10098 9.55472,24.26626 8.963794,23.81193 8.35339,23.34263 8.181316,22.1202 8.665622,21.52163 L 13.26534,15.83619 8.665622,10.15127 C 8.181316,9.5527 8.35339,8.32975 8.963794,7.86045 9.185391,7.69008 9.486733,7.60688 9.80147,7.6 Z m 7.824843,16.9478 h 11.306289 c 0.732853,0 1.542545,0.82167 1.554427,1.55443 0.0123,0.75773 -0.7966,1.65882 -1.554427,1.65881 H 17.626313 c -0.769956,0 -1.620144,-0.88895 -1.607653,-1.65881 0.01209,-0.74529 0.862261,-1.55443 1.607653,-1.55443 z" />
</svg>
